<?xml version="1.0" encoding="UTF-8"?>
<svg width="32.093mm" height="31.076mm" version="1.1" viewBox="0 0 113.71435 110.11175" xmlns="http://www.w3.org/2000/svg" xmlns:xlink="http://www.w3.org/1999/xlink">
 <defs>
  <pattern id="i" patternTransform="matrix(.94903 0 0 .896 2.8284 947.52)" xlink:href="#a"/>
  <pattern id="h" patternTransform="matrix(.86064 0 0 .87832 .17678 946.29)" xlink:href="#a"/>
  <pattern id="a" width="10" height="10" patternTransform="translate(0) scale(10)" patternUnits="userSpaceOnUse">
   <circle cx="2.567" cy=".81" r=".45"/>
   <circle cx="3.048" cy="2.33" r=".45"/>
   <circle cx="4.418" cy="2.415" r=".45"/>
   <circle cx="1.844" cy="3.029" r=".45"/>
   <circle cx="6.08" cy="1.363" r=".45"/>
   <circle cx="5.819" cy="4.413" r=".45"/>
   <circle cx="4.305" cy="4.048" r=".45"/>
   <circle cx="5.541" cy="3.045" r=".45"/>
   <circle cx="4.785" cy="5.527" r=".45"/>
   <circle cx="2.667" cy="5.184" r=".45"/>
   <circle cx="7.965" cy="1.448" r=".45"/>
   <circle cx="7.047" cy="5.049" r=".45"/>
   <circle cx="4.34" cy=".895" r=".45"/>
   <circle cx="7.125" cy=".34" r=".45"/>
   <circle cx="9.553" cy="1.049" r=".45"/>
   <circle cx="7.006" cy="2.689" r=".45"/>
   <circle cx="8.909" cy="2.689" r=".45"/>
   <circle cx="9.315" cy="4.407" r=".45"/>
   <circle cx="7.82" cy="3.87" r=".45"/>
   <circle cx="8.27" cy="5.948" r=".45"/>
   <circle cx="7.973" cy="7.428" r=".45"/>
   <circle cx="9.342" cy="8.072" r=".45"/>
   <circle cx="8.206" cy="9.315" r=".45"/>
   <circle cx="9.682" cy="9.475" r=".45"/>
   <circle cx="9.688" cy="6.186" r=".45"/>
   <circle cx="3.379" cy="6.296" r=".45"/>
   <circle cx="2.871" cy="8.204" r=".45"/>
   <circle cx="4.59" cy="8.719" r=".45"/>
   <circle cx="3.181" cy="9.671" r=".45"/>
   <circle cx="5.734" cy="7.315" r=".45"/>
   <circle cx="6.707" cy="6.513" r=".45"/>
   <circle cx="5.73" cy="9.67" r=".45"/>
   <circle cx="6.535" cy="8.373" r=".45"/>
   <circle cx="4.37" cy="7.154" r=".45"/>
   <circle cx=".622" cy="7.25" r=".45"/>
   <circle cx=".831" cy="5.679" r=".45"/>
   <circle cx="1.257" cy="8.519" r=".45"/>
   <circle cx="1.989" cy="6.877" r=".45"/>
   <circle cx=".374" cy="3.181" r=".45"/>
   <circle cx="1.166" cy="1.664" r=".45"/>
   <circle cx="1.151" cy=".093" r=".45"/>
   <circle cx="1.151" cy="10.093" r=".45"/>
   <circle cx="1.302" cy="4.451" r=".45"/>
   <circle cx="3.047" cy="3.763" r=".45"/>
  </pattern>
  <pattern id="g" xlink:href="#f" patternTransform="matrix(.59294 .66374 -2.243 2.0037 -9.2374 958.65)"/>
  <pattern id="f" width="1.5" height="1" patternTransform="translate(0) scale(10)" patternUnits="userSpaceOnUse">
   <rect y="-.5" width="1" height="2"/>
  </pattern>
 </defs>
 <g transform="translate(2.3472 -943.95)" fill-rule="evenodd">
  <path d="m27.125 960.24 12 37c1.45 0.97246 5.3925 2.8416 6.125-1.75l-12.875-40.25-3.5-0.875z" fill="#fff" stroke="#0f0" stroke-width=".35433"/>
  <path d="m29.125 948.74c-1.7083 0.14991-3.4167-0.79431-5.125 3.125l-21.75 61c1.3815 1.6108 2.7654 3.2184 6.75 1.25l19.25-58.375c0.45119-0.88215 0.69484-1.9718 2.75-1.25l47.625 17.625-20.75 74.25c1.1207 2.665 2.7831 4.367 6.875 1.75l19.875-70.125 15.375 48.25c2.581 1.9905 5.1631 1.7359 6.625-1.375l-18.375-55.5c-2.4155-1.8734-3.5075-1.9822-5-2.625z" fill="#fff" stroke="#f00" stroke-width=".35433"/>
  <path d="m45.375 1004.4-8.7866 4.3004 17.352 11.206 8.875-5.1174z" fill="#fff" stroke="#f00" stroke-width=".35433"/>
  <path d="m45.295 1003.8c-0.15051 0-0.29974 0.029-0.43359 0.098l-8.4824 4.375c-0.62302 0.3211-0.8335 2.3091-0.22651 2.6595l17.432 11.346c0.26014 0.1498 0.57845 0.1577 0.8457 0.021l8.8977-5.3586c0.62293-0.3176 0.49167-2.3975-0.11097-2.7522l-17.5-10.268c-0.12824-0.075-0.27332-0.1168-0.42188-0.1211zm0.0084 1.2317 16.412 9.8029-7.6914 4.1527-15.992-10.104z" color="#000000" color-rendering="auto" image-rendering="auto" shape-rendering="auto" solid-color="#000000" style="block-progression:tb;isolation:auto;mix-blend-mode:normal;text-decoration-color:#000000;text-decoration-line:none;text-decoration-style:solid;text-indent:0;text-transform:none;white-space:normal"/>
  <path d="m47.716 1004.9c0.0011-0.6788 0.66552-4.429-2.8048-4.4092-1.742 0.01-3.5349 3.2123-3.9286 4.1964-0.27042 1.659-0.21749 6.7312-0.24713 9.1125-0.06501 0.3578-0.47142 0.3155-0.92962 0.2372-1.0211-0.1745-2.3952-1.0608-2.1584-2.3439 0.08929-2.1404-0.05267-6.3905 0.29942-7.6308 0.17472-0.9668 2.8277-5.7538 6.7857-5.625 3.6298 0.1181 4.9394 2.199 5.2101 3.0663 0.35341 1.132 0.13653 3.3995-0.01127 4.718z" fill="#fff" stroke="#000" stroke-width="1.4173"/>
  <path d="m47.735 1018.7c-0.10517-2.2315 0.22224-5.9853 0.99298-8.6906 0.48897-1.5854 3.1828-5.7724 7.4324-5.9451 5.5847-0.227 6.1094 3.679 6.1508 4.5536 0.0602 1.2707-0.09745 3.1339-0.44643 4.6527l-2.684-1.5972 0.37246-3.1448c0.08929-0.7043-0.26088-2.7648-3.3036-2.3214-3.2967 0.4804-4.4643 4.7321-4.4643 4.7321l-1.0615 9.3164c-1.2067 0.3878-2.944-0.6049-2.9888-1.5557z" fill="#fff" stroke="#000" stroke-width="1.4173"/>
  <path transform="translate(0 946.06)" d="m28.186 1.4941c-2.1264-0.37487-4.1118 0.88674-4.7871 2.7871-7.4484 20.437-14.687 40.287-21.927 60.715-1.2174 3.4349 1.8431 5.1298 4.5288 5.0411 1.9934-0.06585 3.9569-1.0904 4.6699-3.252 5.4666-16.573 10.996-33.127 16.521-49.68 3.5781 11.248 7.0287 22.537 10.736 33.742 0.79082 2.39 3.8554 2.8787 6.0449 2.0234 1.7666-0.69006 3.1433-2.5227 2.4883-4.5039l-12.398-37.5c3.1742 1.1152 6.3999 2.2705 9.6426 3.4375-0.12037 0.92188-0.13171 1.8593 0.05078 2.7715 0.16053 0.80243 0.58816 1.5815 1.3027 2.0215 0.84047 0.51752 1.919 0.51347 2.8145 0.15234 1.204-0.75569 1.5529-1.6266 1.7598-2.8027 1.488 0.53944 4.9703 1.8236 6.4609 2.3652-0.09452 0.8513-0.09779 1.7124 0.07031 2.5527 0.16053 0.80243 0.58816 1.5815 1.3027 2.0215 0.84048 0.51752 1.9639 0.60938 2.8145 0.15234 1.1403-0.61276 1.5316-1.5031 1.7324-2.5801 5.3242 1.9317 8.6288 3.0987 13.805 4.9219 1.9406 0.47893 1.9074 0.87773 1.4336 2.5391-6.7967 23.828-13.654 47.688-20.473 71.527-0.50291 2.5467 1.427 4.0372 3.6895 4.4141 2.5652 0.42734 5.2421-0.63984 5.9141-3.0938l18.182-66.172c4.792 14.538 9.5555 30.916 14.365 45.447 0.91624 1.8207 3.3476 2.7669 5.3457 2.248 2.0087-0.52159 4.2104-2.3921 3.3613-4.6797-5.7376-17.788-11.477-35.661-17.252-53.436-1.0513-2.3766-2.9971-3.7925-5.2598-4.7964-17.884-5.5599-40.167-13.019-56.939-18.385zm-0.26172 2.4902c19.468 6.1311 39.446 12.622 56.086 18.176 4.2696 1.7646 4.2759 6.8243 5.8223 10.525 5.0039 15.562 10.012 31.124 15.014 46.688-0.37323 0.28474-1.0383 0.7984-1.3652 0.92188-2.2212 0.83898-3.1582-2.0775-3.7871-4.1152-4.8024-15.559-9.8006-30.999-14.891-46.467-0.24989-0.52507-0.47734-0.52715-0.74023-0.13086-6.7479 23.882-13.499 47.764-20.244 71.646-1.0837 0.79406-2.1045 0.97833-2.9062 0.73632-1.4569-0.43977-2.1913-2.288-1.2656-4.4434l20.059-68.619c1.068-3.258-1.5691-5.3076-4.5801-5.9004-10.103-3.2805-32.796-11.342-44.859-15.676-1.15-0.37494-2.3488 0.46909-2.8359 1.3105-6.6516 19.446-13.216 40.119-18.867 57.172-0.45163 1.3627-1.8755 2.5079-2.7656 2.2656-2.1315-0.58009-2.4774-1.9848-1.6426-4.291 6.9396-19.172 13.987-38.506 20.926-57.672 0.62761-0.97954 1.63-2.0174 2.8438-2.127zm2.4219 5.8906c0.31764 0.00677 0.27542 0.021672 0.66462 0.2154 4.0176 12.791 8.3273 25.505 12.405 38.277 0.41346 1.295 0.38894 2.3355-0.20034 2.6055-0.98456 0.45098-2.6786 0.35157-3.0918-0.86328-4.0893-12.024-6.9065-22.531-11.691-37.002-5e-3 0.0451 0.70898-2.4023 0.70898-2.4023 0.25905-0.57998 0.67568-0.84137 1.2051-0.83008zm15.08 5.0469c0.81765 0.29504 1.6411 0.59584 2.4609 0.89258 0.0214 0.53946-0.02397 1.1049-0.35547 1.541-0.32067 0.42184-0.93635 0.46069-1.4082 0.33594-0.37775-0.09988-0.51893-0.54504-0.60547-0.89062-0.1541-0.61539-0.15236-1.2486-0.0918-1.8789zm12.344 4.498c0.84554 0.30723 1.6863 0.60918 2.5312 0.91602-0.0028 0.46568-0.07911 0.9359-0.36133 1.3105-0.30812 0.40904-0.8908 0.43493-1.3535 0.34766-0.39489-0.07448-0.55683-0.51458-0.64844-0.86133-0.1362-0.51553-0.17988-1.1163-0.16797-1.7129z" color="#000000" color-rendering="auto" image-rendering="auto" shape-rendering="auto" solid-color="#000000" style="block-progression:tb;isolation:auto;mix-blend-mode:normal;text-decoration-color:#000000;text-decoration-line:none;text-decoration-style:solid;text-indent:0;text-transform:none;white-space:normal"/>
  <g fill="#fff" shape-rendering="auto" stroke="#000" stroke-linecap="round" stroke-width=".35433">
   <path transform="translate(0 946.06)" d="m46.361 16.115c-0.48845-0.01137-0.8939 0.37485-0.90625 0.86328l-0.07617 1.9238c-0.60491 0.05636-0.97665 0.3672-1.0084 0.82567-0.05764 0.83326 0.55429 0.89244 1.0347 1.0267l-0.84734 30.196c-0.71323 0.09312-1.0542 0.53966-1.0122 0.9981 0.07249 0.79044 0.57079 0.61026 0.99922 0.81878 0.1535 0.21161 0.20656 0.42016 0.22132 0.67662 0.02453 0.4263-0.04192 0.59175-0.12757 0.76283-0.21942 0.43832-0.32555 0.55626-0.64738 0.69831 0.33602 0.51126 0.6479 0.88678 1.6228 0.63909 0.74064-0.18818 0.87519-1.2731 0.83711-1.935-0.01816-0.31553-0.06405-0.62424-0.11719-0.92383 0.72322-0.0472 1.0725-0.56073 0.98172-0.94262-0.206-0.86685-0.57328-0.63982-1.1383-0.82497l0.89876-30.082c0.47641-0.22354 0.90155-0.53409 0.8765-0.90434-0.0515-0.76123-0.31104-0.61285-0.77462-0.8691l0.04656-2.0137c0.02704-0.49897-0.36372-0.92156-0.86329-0.93359z" color="#000000" color-rendering="auto" image-rendering="auto" solid-color="#000000" style="block-progression:tb;isolation:auto;mix-blend-mode:normal;text-decoration-color:#000000;text-decoration-line:none;text-decoration-style:solid;text-indent:0;text-transform:none;white-space:normal"/>
   <path transform="translate(0 946.06)" d="m58.771 21c-0.48914 0.0028-0.88347 0.40148-0.88086 0.89062l-0.01758 1.918c-0.65074 0.13164-0.99657 0.27143-0.99368 0.97872 0.0029 0.71955 0.53393 0.57316 0.97805 0.79471l-1.4504 30.463c-0.69573 1.62e-4 -1.1231 0.39583-1.1084 0.82348 0.0303 0.88497 0.39892 0.86632 1.0158 0.96575-0.0084 0.64457 0.01373 1.265-0.0332 1.7363-0.05306 0.5326-0.16652 0.62225-0.3457 0.75195-0.36882 0.17125-0.49999 0.21837-0.69133 0.2911 0.0078 0.19827 0.16059 0.473 0.47318 0.75746 0.34488 0.31383 1.1121 0.31273 1.386 0.11457 0.7569-0.54767 0.86673-0.9884 0.94152-1.7393 0.07063-0.70901 0.02871-1.3684 0.03906-1.9606 0.62896-0.01955 0.95468-0.4384 0.96499-0.82676 0.02294-0.86398-0.41468-0.83688-0.93764-0.97819 0.44777-10.207 0.86264-19.805 1.5175-30.279 0.7355-0.0047 1.0376-0.42181 1.0327-0.85328-0.01-0.8623-0.47299-0.67474-1.017-0.92211l0.01758-2.0215c0.01035-0.49829-0.39223-0.90705-0.89062-0.9043z" color="#000000" color-rendering="auto" image-rendering="auto" solid-color="#000000" style="block-progression:tb;isolation:auto;mix-blend-mode:normal;text-decoration-color:#000000;text-decoration-line:none;text-decoration-style:solid;text-indent:0;text-transform:none;white-space:normal"/>
  </g>
  <path d="m84.146 974.05c0.94956-0.23989 1.4885 2.0594 1.9445 3.182 2.9256 7.2019 12.981 39.12 20.506 49.144-2.2388 1.7044-4.3608 1.7722-6.364 0.1768l-15.072-47.213-20.561 68.571-2.8833 1.4839c3.4707-11.262 13.935-47.388 20.451-71.79 0.34981-1.31 0.71343-3.2347 1.978-3.5542z" fill="url(#i)"/>
  <path d="m31.024 955.4c0.56917 12.614 10.848 36.692 11.756 42.78-1.3394 0.31487-2.6077 0.0612-3.7123-1.5026l-12.198-37.477-18.254 54.851-1.8325 0.7541 19.142-58.8c0.4802-1.0342 0.91196-2.5722 3.3307-2.5498z" fill="url(#h)"/>
  <g transform="translate(.00010043 .00030829)" fill="url(#g)" shape-rendering="auto">
   <path transform="translate(0 946.06)" d="m46.361 16.115c-0.48845-0.01137-0.8939 0.37485-0.90625 0.86328l-0.07617 1.9238c-0.60491 0.05636-0.97665 0.3672-1.0084 0.82567-0.05764 0.83326 0.55429 0.89244 1.0347 1.0267l-0.84734 30.196c-0.71323 0.09312-1.0542 0.53966-1.0122 0.9981 0.07249 0.79044 0.57079 0.61026 0.99922 0.81878 0.1535 0.21161 0.20656 0.42016 0.22132 0.67662 0.02453 0.4263-0.04192 0.59175-0.12757 0.76283-0.21942 0.43832-0.32555 0.55626-0.64738 0.69831 0.33602 0.51126 0.6479 0.88678 1.6228 0.63909 0.74064-0.18818 0.87519-1.2731 0.83711-1.935-0.01816-0.31553-0.06405-0.62424-0.11719-0.92383 0.72322-0.0472 1.0725-0.56073 0.98172-0.94262-0.206-0.86685-0.57328-0.63982-1.1383-0.82497l0.89876-30.082c0.47641-0.22354 0.90155-0.53409 0.8765-0.90434-0.0515-0.76123-0.31104-0.61285-0.77462-0.8691l0.04656-2.0137c0.02704-0.49897-0.36372-0.92156-0.86329-0.93359z" color="#000000" color-rendering="auto" image-rendering="auto" solid-color="#000000" style="block-progression:tb;isolation:auto;mix-blend-mode:normal;text-decoration-color:#000000;text-decoration-line:none;text-decoration-style:solid;text-indent:0;text-transform:none;white-space:normal"/>
   <path transform="translate(0 946.06)" d="m58.771 21c-0.48914 0.0028-0.88347 0.40148-0.88086 0.89062l-0.01758 1.918c-0.65074 0.13164-0.99657 0.27143-0.99368 0.97872 0.0029 0.71955 0.53393 0.57316 0.97805 0.79471l-1.4504 30.463c-0.69573 1.62e-4 -1.1231 0.39583-1.1084 0.82348 0.0303 0.88497 0.39892 0.86632 1.0158 0.96575-0.0084 0.64457 0.01373 1.265-0.0332 1.7363-0.05306 0.5326-0.16652 0.62225-0.3457 0.75195-0.36882 0.17125-0.49999 0.21837-0.69133 0.2911 0.0078 0.19827 0.16059 0.473 0.47318 0.75746 0.34488 0.31383 1.1121 0.31273 1.386 0.11457 0.7569-0.54767 0.86673-0.9884 0.94152-1.7393 0.07063-0.70901 0.02871-1.3684 0.03906-1.9606 0.62896-0.01955 0.95468-0.4384 0.96499-0.82676 0.02294-0.86398-0.41468-0.83688-0.93764-0.97819 0.44777-10.207 0.86264-19.805 1.5175-30.279 0.7355-0.0047 1.0376-0.42181 1.0327-0.85328-0.01-0.8623-0.47299-0.67474-1.017-0.92211l0.01758-2.0215c0.01035-0.49829-0.39223-0.90705-0.89062-0.9043z" color="#000000" color-rendering="auto" image-rendering="auto" solid-color="#000000" style="block-progression:tb;isolation:auto;mix-blend-mode:normal;text-decoration-color:#000000;text-decoration-line:none;text-decoration-style:solid;text-indent:0;text-transform:none;white-space:normal"/>
  </g>
 </g>
</svg>
